<svg id="svg" version="1.1" xmlns="http://www.w3.org/2000/svg" xmlns:xlink="http://www.w3.org/1999/xlink" width="400" height="411.1650485436893" viewBox="0, 0, 400,411.1650485436893"><g id="svgg"><path id="path0" d="M164.509 16.975 C 162.093 17.560,157.607 19.674,155.658 21.146 C 154.356 22.129,80.333 95.996,79.443 97.200 C 79.199 97.530,78.642 98.520,78.204 99.400 C 77.766 100.280,77.283 101.093,77.131 101.207 C 76.679 101.545,75.200 107.277,75.200 108.692 C 75.200 109.411,75.020 110.000,74.800 110.000 C 74.569 110.000,74.400 111.267,74.400 113.000 C 74.400 114.733,74.569 116.000,74.800 116.000 C 75.020 116.000,75.198 116.495,75.196 117.100 C 75.191 118.495,76.866 126.533,77.217 126.800 C 77.362 126.910,77.901 128.890,78.415 131.200 C 78.930 133.510,79.468 135.490,79.611 135.600 C 79.754 135.710,80.096 136.970,80.371 138.400 C 80.645 139.830,81.197 141.990,81.597 143.200 C 81.997 144.410,82.655 146.885,83.059 148.700 C 83.462 150.515,83.929 152.000,84.096 152.000 C 84.263 152.000,84.400 152.290,84.400 152.645 C 84.400 153.575,85.956 160.053,86.406 161.000 C 86.616 161.440,87.151 163.470,87.597 165.511 C 88.042 167.552,88.576 169.532,88.782 169.911 C 88.989 170.290,89.457 172.040,89.823 173.800 C 90.188 175.560,90.628 177.180,90.800 177.400 C 91.074 177.751,92.130 182.155,92.694 185.300 C 92.951 186.735,94.072 186.745,95.930 185.328 C 97.863 183.853,103.035 181.267,104.660 180.962 C 105.397 180.824,106.000 180.576,106.000 180.411 C 106.000 180.246,107.800 179.782,110.000 179.380 C 114.099 178.631,115.119 177.734,113.638 176.180 C 113.438 175.971,112.971 174.270,112.599 172.400 C 112.227 170.530,111.686 168.460,111.396 167.800 C 111.106 167.140,110.562 165.160,110.187 163.400 C 109.813 161.640,109.382 160.110,109.230 160.000 C 109.078 159.890,108.538 157.820,108.029 155.400 C 107.520 152.980,106.980 150.910,106.829 150.800 C 106.678 150.690,106.140 148.710,105.634 146.400 C 105.127 144.090,104.572 142.020,104.400 141.800 C 104.228 141.580,103.796 139.976,103.439 138.236 C 103.083 136.495,102.635 134.875,102.445 134.636 C 102.255 134.396,101.700 132.310,101.212 130.000 C 100.724 127.690,100.174 125.617,99.990 125.393 C 98.450 123.517,98.556 114.118,100.156 110.719 C 100.704 109.554,101.339 108.105,101.567 107.500 C 101.794 106.895,102.153 106.400,102.363 106.400 C 102.574 106.400,102.872 106.003,103.026 105.518 C 103.309 104.627,162.879 44.800,163.483 44.800 C 163.662 44.800,164.261 44.380,164.814 43.868 C 165.367 43.355,166.715 42.599,167.810 42.188 C 168.904 41.777,169.896 41.305,170.013 41.138 C 170.838 39.963,182.404 39.985,183.193 41.163 C 183.307 41.333,184.570 41.697,186.000 41.972 C 187.430 42.247,189.557 42.806,190.727 43.215 C 191.896 43.624,194.285 44.250,196.035 44.607 C 197.785 44.964,199.708 45.512,200.308 45.826 C 200.909 46.139,201.644 46.396,201.943 46.398 C 202.802 46.401,208.178 47.730,208.400 47.994 C 208.510 48.124,210.580 48.661,213.000 49.185 C 215.420 49.710,217.490 50.259,217.600 50.405 C 217.710 50.552,219.420 51.003,221.400 51.409 C 223.380 51.815,225.090 52.275,225.200 52.431 C 225.310 52.587,227.200 53.104,229.400 53.580 C 231.600 54.055,233.571 54.614,233.780 54.822 C 234.908 55.944,235.484 55.207,235.754 52.300 C 235.901 50.705,236.197 49.340,236.411 49.267 C 236.625 49.193,236.800 48.853,236.800 48.510 C 236.800 47.658,238.425 42.248,238.756 42.000 C 238.902 41.890,239.372 40.990,239.800 40.000 C 240.228 39.010,240.697 38.110,240.843 38.000 C 240.988 37.890,241.500 37.098,241.980 36.241 C 243.110 34.223,242.774 33.902,238.600 33.002 C 236.840 32.623,235.220 32.179,235.000 32.014 C 234.545 31.675,227.582 30.000,226.626 30.000 C 226.282 30.000,226.000 29.859,226.000 29.686 C 226.000 29.514,224.020 28.943,221.600 28.418 C 219.180 27.893,217.200 27.314,217.200 27.132 C 217.200 26.949,216.897 26.800,216.526 26.800 C 215.611 26.800,210.746 25.641,210.000 25.245 C 209.670 25.070,207.510 24.504,205.200 23.988 C 202.890 23.472,200.910 22.928,200.800 22.779 C 200.690 22.631,198.710 22.107,196.400 21.615 C 194.090 21.123,192.110 20.589,192.000 20.427 C 191.890 20.265,190.180 19.816,188.200 19.429 C 186.220 19.041,184.404 18.563,184.164 18.366 C 182.242 16.788,169.114 15.859,164.509 16.975 M298.962 89.000 C 298.323 89.549,297.637 89.999,297.438 90.000 C 297.239 90.000,296.507 90.434,295.812 90.963 C 295.118 91.493,293.847 92.220,292.989 92.579 C 292.130 92.938,291.331 93.389,291.211 93.581 C 291.004 93.917,285.770 95.576,282.000 96.500 C 281.010 96.743,280.156 96.968,280.102 97.002 C 279.890 97.133,281.552 104.062,281.905 104.515 C 282.112 104.782,282.596 106.620,282.981 108.600 C 283.365 110.580,283.809 112.290,283.967 112.400 C 284.125 112.510,284.680 114.580,285.200 117.000 C 285.720 119.420,286.260 121.490,286.400 121.600 C 286.539 121.710,286.969 123.240,287.355 125.000 C 287.741 126.760,288.380 129.100,288.775 130.200 C 289.170 131.300,289.727 133.505,290.011 135.100 C 290.295 136.695,290.656 138.000,290.812 138.000 C 290.968 138.000,291.502 139.935,291.999 142.300 C 292.495 144.665,293.025 146.690,293.176 146.800 C 293.326 146.910,293.854 148.890,294.348 151.200 C 294.842 153.510,295.416 155.713,295.623 156.095 C 296.115 157.001,296.107 160.607,295.610 162.172 C 295.395 162.847,294.829 164.795,294.352 166.500 C 293.874 168.205,293.334 169.600,293.152 169.600 C 292.970 169.600,292.522 170.185,292.157 170.900 C 290.810 173.536,230.894 232.874,227.961 234.476 C 223.019 237.176,211.404 237.599,208.200 235.196 C 207.980 235.031,205.910 234.491,203.600 233.995 C 201.290 233.500,199.310 232.969,199.200 232.814 C 199.090 232.660,197.920 232.305,196.600 232.025 C 195.280 231.745,193.300 231.326,192.200 231.093 C 191.100 230.860,190.110 230.557,190.000 230.418 C 189.890 230.280,188.360 229.840,186.600 229.440 C 184.840 229.039,182.410 228.388,181.200 227.991 C 179.990 227.594,177.830 227.045,176.400 226.771 C 174.970 226.496,173.710 226.145,173.600 225.990 C 173.490 225.836,171.510 225.307,169.200 224.815 C 166.890 224.323,164.910 223.789,164.800 223.627 C 164.605 223.341,161.094 222.493,158.500 222.106 C 157.238 221.918,157.200 221.954,157.200 223.356 C 157.200 224.150,157.020 224.800,156.800 224.800 C 156.580 224.800,156.400 225.109,156.400 225.487 C 156.400 226.782,154.660 232.997,154.156 233.501 C 153.879 233.778,153.528 234.409,153.377 234.902 C 152.996 236.143,150.319 240.529,149.704 240.920 C 148.237 241.851,149.190 242.684,152.477 243.343 C 154.279 243.705,155.854 244.145,155.977 244.322 C 156.099 244.499,157.730 244.966,159.600 245.360 C 161.470 245.754,163.180 246.218,163.400 246.390 C 163.620 246.563,165.690 247.107,168.000 247.600 C 170.310 248.093,172.380 248.637,172.600 248.808 C 172.820 248.980,174.792 249.507,176.982 249.980 C 179.173 250.452,181.153 250.991,181.382 251.177 C 181.612 251.364,183.278 251.816,185.085 252.181 C 186.892 252.547,188.872 253.084,189.485 253.375 C 190.098 253.665,192.220 254.228,194.200 254.625 C 196.180 255.022,197.893 255.482,198.007 255.647 C 198.121 255.811,200.191 256.339,202.607 256.818 C 205.023 257.297,207.090 257.826,207.200 257.993 C 207.310 258.161,208.930 258.618,210.800 259.011 C 212.670 259.403,214.380 259.860,214.600 260.025 C 216.509 261.461,229.156 261.465,230.986 260.030 C 231.214 259.852,232.334 259.401,233.475 259.029 C 234.616 258.657,235.606 258.228,235.675 258.076 C 235.744 257.924,236.610 257.366,237.600 256.835 C 238.590 256.305,239.635 255.540,239.923 255.135 C 240.210 254.731,240.617 254.400,240.827 254.400 C 241.597 254.400,314.639 181.008,315.169 179.700 C 315.460 178.985,315.834 178.400,316.001 178.400 C 316.877 178.400,319.215 171.513,319.600 167.799 C 320.111 162.875,319.283 155.000,318.095 153.489 C 317.884 153.220,317.394 151.335,317.006 149.300 C 316.618 147.265,316.173 145.600,316.017 145.600 C 315.861 145.600,315.324 143.665,314.822 141.300 C 314.321 138.935,313.769 136.820,313.595 136.600 C 313.422 136.380,312.896 134.423,312.428 132.251 C 311.959 130.079,311.399 127.971,311.182 127.567 C 310.966 127.163,310.502 125.430,310.151 123.716 C 309.800 122.002,309.372 120.420,309.200 120.200 C 309.028 119.980,308.473 117.910,307.966 115.600 C 307.460 113.290,306.934 111.310,306.798 111.200 C 306.662 111.090,306.128 109.110,305.612 106.800 C 305.096 104.490,304.530 102.330,304.355 102.000 C 303.959 101.254,302.800 96.389,302.800 95.474 C 302.800 95.103,302.655 94.800,302.478 94.800 C 302.301 94.800,301.821 93.270,301.412 91.400 C 300.580 87.605,300.582 87.607,298.962 89.000 M127.601 280.014 C 126.612 280.222,125.742 280.574,125.668 280.796 C 125.594 281.018,125.269 281.200,124.947 281.200 C 122.845 281.200,118.427 285.070,116.373 288.710 C 113.479 293.836,114.255 304.425,117.742 307.400 C 118.000 307.620,118.528 308.295,118.915 308.900 C 119.302 309.505,119.865 310.000,120.166 310.000 C 120.468 310.000,120.821 310.278,120.952 310.618 C 121.082 310.958,121.866 311.518,122.694 311.863 C 123.522 312.208,124.310 312.665,124.444 312.878 C 125.751 314.956,137.826 314.604,142.133 312.363 C 147.869 309.377,148.177 308.294,144.307 304.700 C 141.080 301.703,140.781 301.589,139.714 302.946 C 136.397 307.163,127.289 305.958,125.774 301.102 C 125.619 300.606,125.325 300.092,125.121 299.961 C 124.917 299.829,124.750 298.497,124.750 297.000 C 124.750 295.503,124.917 294.171,125.121 294.039 C 125.325 293.908,125.621 293.386,125.780 292.880 C 127.226 288.246,134.679 286.870,138.998 290.439 C 141.048 292.133,140.989 292.139,143.642 290.000 C 147.422 286.952,147.821 286.140,146.250 284.682 C 144.154 282.736,143.276 282.000,143.055 282.000 C 142.928 282.000,141.784 281.524,140.512 280.943 C 137.927 279.760,131.133 279.271,127.601 280.014 M10.300 280.227 C 10.135 280.395,10.000 287.973,10.000 297.067 L 10.000 313.600 15.000 313.600 L 20.000 313.600 20.000 309.400 L 20.000 305.200 22.500 305.206 L 25.000 305.212 25.979 307.206 C 26.517 308.303,27.094 309.200,27.260 309.200 C 27.426 309.200,27.869 309.847,28.244 310.637 C 28.619 311.427,29.168 312.166,29.463 312.280 C 29.758 312.393,30.000 312.736,30.000 313.043 C 30.000 313.493,31.080 313.600,35.600 313.600 C 38.680 313.600,41.200 313.497,41.200 313.371 C 41.200 312.911,39.115 309.600,38.825 309.600 C 38.660 309.600,38.109 308.790,37.600 307.800 C 37.091 306.810,36.563 306.000,36.428 306.000 C 35.535 306.000,34.654 303.114,35.417 302.689 C 43.670 298.097,40.657 281.200,31.584 281.200 C 31.190 281.200,30.792 280.977,30.702 280.705 C 30.514 280.142,10.834 279.681,10.300 280.227 M46.000 296.800 L 46.000 313.600 59.600 313.600 L 73.200 313.600 73.200 309.843 C 73.200 305.234,73.997 305.600,63.967 305.600 L 56.000 305.600 56.000 303.200 L 56.000 300.800 63.000 300.800 L 70.000 300.800 70.000 296.800 L 70.000 292.800 63.000 292.800 L 56.000 292.800 56.000 290.600 L 56.000 288.400 64.000 288.400 L 72.000 288.400 72.000 284.200 L 72.000 280.000 59.000 280.000 L 46.000 280.000 46.000 296.800 M88.246 281.360 C 87.891 282.109,87.600 282.825,87.600 282.952 C 87.600 283.079,86.982 284.503,86.226 286.116 C 85.471 287.730,84.731 289.534,84.583 290.125 C 84.435 290.716,84.189 291.200,84.037 291.200 C 83.885 291.200,83.526 291.875,83.238 292.700 C 82.708 294.222,81.622 296.664,79.548 301.000 C 78.916 302.320,78.400 303.531,78.400 303.691 C 78.400 303.851,77.782 305.303,77.026 306.916 C 76.271 308.530,75.531 310.334,75.383 310.925 C 75.235 311.516,74.953 312.000,74.757 312.000 C 74.560 312.000,74.400 312.365,74.400 312.812 C 74.400 313.592,74.605 313.619,79.667 313.512 L 84.934 313.400 85.527 311.600 C 85.853 310.610,86.259 309.708,86.428 309.596 C 86.598 309.484,86.860 308.899,87.012 308.296 L 87.287 307.200 93.745 307.200 L 100.203 307.200 101.141 309.900 C 102.486 313.769,102.171 313.600,108.049 313.600 C 110.882 313.600,113.200 313.548,113.200 313.485 C 113.200 313.045,111.674 309.167,111.331 308.735 C 111.097 308.441,110.598 307.255,110.221 306.100 C 109.844 304.945,109.411 304.000,109.259 304.000 C 109.106 304.000,108.553 302.740,108.028 301.200 C 107.504 299.660,106.943 298.400,106.781 298.400 C 106.619 298.400,106.364 297.911,106.214 297.313 C 106.064 296.715,105.234 294.725,104.371 292.889 C 103.507 291.054,102.800 289.293,102.800 288.976 C 102.800 288.659,102.665 288.399,102.500 288.399 C 102.211 288.397,101.139 285.967,100.604 284.100 C 100.462 283.605,100.207 283.200,100.037 283.200 C 99.867 283.200,99.490 282.480,99.200 281.600 L 98.672 280.000 93.782 280.000 L 88.891 280.000 88.246 281.360 M148.800 284.200 L 148.800 288.400 153.600 288.400 L 158.400 288.400 158.400 301.000 L 158.400 313.600 163.600 313.600 L 168.800 313.600 168.800 301.000 L 168.800 288.400 173.800 288.400 L 178.800 288.400 178.800 284.200 L 178.800 280.000 163.800 280.000 L 148.800 280.000 148.800 284.200 M197.043 280.633 C 196.909 280.981,196.800 288.541,196.800 297.433 L 196.800 313.600 202.000 313.600 L 207.200 313.600 207.203 305.500 C 207.205 297.673,207.229 297.434,207.903 298.422 C 208.286 298.983,208.960 299.833,209.400 300.310 C 209.840 300.787,210.650 301.736,211.200 302.420 C 211.750 303.104,212.695 304.172,213.300 304.792 C 213.905 305.413,214.400 306.052,214.400 306.212 C 214.400 306.481,215.967 308.385,218.177 310.800 C 218.680 311.350,219.302 312.205,219.560 312.700 C 220.002 313.550,220.271 313.600,224.414 313.600 L 228.800 313.600 228.800 296.800 L 228.800 280.000 224.000 280.000 L 219.200 280.000 219.200 288.259 L 219.200 296.519 218.100 295.334 C 217.495 294.683,216.460 293.465,215.800 292.628 C 215.140 291.790,214.240 290.696,213.800 290.196 C 213.360 289.697,211.290 287.204,209.200 284.657 L 205.400 280.027 201.343 280.013 C 198.004 280.002,197.243 280.112,197.043 280.633 M245.264 282.592 C 244.569 284.017,243.999 285.412,243.997 285.692 C 243.996 285.971,243.639 286.740,243.203 287.400 C 242.768 288.060,242.115 289.545,241.751 290.700 C 241.388 291.855,240.955 292.800,240.789 292.800 C 240.623 292.800,240.372 293.257,240.232 293.816 C 240.091 294.375,239.364 296.141,238.615 297.741 C 237.866 299.341,237.131 301.134,236.983 301.725 C 236.835 302.316,236.586 302.800,236.431 302.800 C 236.275 302.800,235.723 304.015,235.204 305.500 C 234.686 306.985,234.128 308.291,233.966 308.401 C 233.666 308.607,232.001 312.755,232.000 313.300 C 232.000 313.465,234.320 313.600,237.157 313.600 L 242.313 313.600 242.588 312.504 C 242.740 311.901,243.002 311.316,243.172 311.204 C 243.341 311.092,243.747 310.190,244.073 309.200 L 244.666 307.400 251.142 307.290 C 257.043 307.190,257.639 307.243,257.859 307.890 C 257.993 308.281,258.529 309.534,259.051 310.675 C 259.573 311.817,260.000 312.942,260.000 313.175 C 260.000 313.454,261.857 313.600,265.400 313.600 C 270.621 313.600,272.041 313.214,270.448 312.230 C 270.254 312.110,269.787 311.064,269.410 309.906 C 269.033 308.748,268.526 307.559,268.284 307.265 C 268.041 306.970,267.516 305.800,267.117 304.665 C 266.717 303.529,266.212 302.540,265.995 302.467 C 265.778 302.393,265.600 302.127,265.600 301.874 C 265.600 301.310,263.901 297.076,263.563 296.800 C 263.429 296.690,262.919 295.522,262.429 294.205 C 261.940 292.888,261.385 291.623,261.196 291.395 C 261.007 291.167,260.549 290.085,260.179 288.990 C 259.809 287.896,259.364 286.910,259.191 286.800 C 259.019 286.690,258.498 285.520,258.034 284.200 C 257.571 282.880,257.013 281.740,256.796 281.667 C 256.578 281.593,256.400 281.188,256.400 280.767 C 256.400 280.053,256.062 280.000,251.464 280.000 L 246.527 280.000 245.264 282.592 M270.800 284.200 L 270.800 288.400 275.800 288.400 L 280.800 288.400 280.800 301.000 L 280.800 313.600 285.800 313.600 L 290.800 313.600 290.800 301.000 L 290.800 288.400 295.800 288.400 L 300.800 288.400 300.800 284.200 L 300.800 280.000 285.800 280.000 L 270.800 280.000 270.800 284.200 M304.444 280.547 C 304.119 280.939,304.020 285.655,304.095 297.247 L 304.200 313.400 309.300 313.512 L 314.400 313.624 314.400 296.812 L 314.400 280.000 309.649 280.000 C 306.121 280.000,304.781 280.141,304.444 280.547 M317.554 280.300 C 317.450 280.980,317.703 282.213,317.985 282.400 C 318.152 282.510,318.698 283.770,319.200 285.200 C 319.702 286.630,320.233 287.890,320.381 288.000 C 320.529 288.110,321.078 289.370,321.600 290.800 C 322.122 292.230,322.670 293.490,322.817 293.600 C 322.964 293.710,323.317 294.513,323.601 295.384 C 323.885 296.256,324.524 297.786,325.021 298.784 C 325.517 299.783,326.149 301.365,326.425 302.300 C 326.701 303.235,327.054 304.000,327.209 304.000 C 327.365 304.000,327.900 305.215,328.399 306.700 C 328.898 308.185,329.436 309.490,329.593 309.600 C 329.751 309.710,330.147 310.610,330.473 311.600 L 331.067 313.400 336.374 313.400 L 341.681 313.400 342.287 311.600 C 342.620 310.610,343.028 309.710,343.193 309.600 C 343.358 309.490,343.902 308.185,344.401 306.700 C 344.900 305.215,345.435 304.000,345.591 304.000 C 345.746 304.000,346.102 303.235,346.382 302.300 C 346.661 301.365,347.295 299.790,347.790 298.800 C 348.286 297.810,348.921 296.280,349.203 295.400 C 349.485 294.520,349.836 293.710,349.983 293.600 C 350.130 293.490,350.678 292.230,351.200 290.800 C 351.722 289.370,352.275 288.110,352.428 288.000 C 352.581 287.890,352.997 286.939,353.353 285.886 C 353.709 284.833,354.255 283.573,354.567 283.086 C 354.879 282.599,355.194 281.750,355.267 281.200 L 355.400 280.200 350.657 280.087 C 345.189 279.957,345.206 279.948,344.170 283.191 C 343.747 284.516,343.280 285.600,343.132 285.600 C 342.985 285.600,342.559 286.545,342.187 287.700 C 341.814 288.855,341.289 290.160,341.019 290.600 C 340.750 291.040,340.196 292.300,339.788 293.400 C 339.381 294.500,338.832 295.760,338.568 296.200 C 338.305 296.640,337.878 297.665,337.621 298.478 C 337.029 300.344,336.282 300.121,335.614 297.879 C 335.339 296.956,334.762 295.480,334.331 294.600 C 333.900 293.720,333.268 292.190,332.927 291.200 C 332.585 290.210,332.174 289.310,332.012 289.200 C 331.851 289.090,331.317 287.785,330.827 286.300 C 330.336 284.815,329.809 283.600,329.655 283.600 C 329.501 283.600,329.135 282.790,328.843 281.800 L 328.312 280.000 322.956 280.000 C 320.010 280.000,317.579 280.135,317.554 280.300 M358.243 280.633 C 358.109 280.981,358.000 288.541,358.000 297.433 L 358.000 313.600 371.614 313.600 L 385.229 313.600 385.114 309.700 L 385.000 305.800 376.700 305.692 L 368.400 305.584 368.400 303.192 L 368.400 300.800 375.600 300.800 L 382.800 300.800 382.800 296.800 L 382.800 292.800 375.600 292.800 L 368.400 292.800 368.400 290.600 L 368.400 288.400 376.600 288.400 L 384.800 288.400 384.800 284.200 L 384.800 280.000 371.643 280.000 C 360.014 280.000,358.457 280.074,358.243 280.633 M28.262 289.207 C 32.988 292.158,29.786 297.200,23.184 297.200 L 20.000 297.200 20.000 292.745 L 20.000 288.291 23.709 288.485 C 25.748 288.592,27.797 288.916,28.262 289.207 M95.459 295.677 C 95.836 296.267,96.785 298.841,96.794 299.300 C 96.797 299.465,95.360 299.600,93.600 299.600 C 91.022 299.600,90.400 299.483,90.400 299.000 C 90.400 298.670,90.559 298.400,90.754 298.400 C 90.949 298.400,91.405 297.455,91.768 296.300 C 92.131 295.145,92.731 293.551,93.100 292.757 L 93.772 291.315 94.448 293.234 C 94.820 294.290,95.275 295.389,95.459 295.677 M252.324 294.000 C 252.490 294.000,252.867 294.855,253.163 295.900 C 253.459 296.945,253.952 298.205,254.260 298.700 L 254.818 299.600 251.409 299.600 C 249.534 299.600,248.000 299.555,248.000 299.500 C 248.001 299.195,249.775 294.739,250.503 293.213 L 251.356 291.426 251.689 292.713 C 251.873 293.421,252.158 294.000,252.324 294.000 M185.700 323.466 C 184.985 323.567,184.400 323.819,184.400 324.025 C 184.400 324.231,184.135 324.400,183.811 324.400 C 176.084 324.400,169.194 338.717,172.960 346.949 C 173.532 348.200,174.000 349.372,174.000 349.554 C 174.000 350.170,178.994 355.099,179.900 355.377 C 180.395 355.530,180.800 355.798,180.800 355.974 C 180.800 356.827,185.918 357.782,190.400 357.766 C 194.748 357.750,199.600 356.855,199.600 356.069 C 199.600 355.919,200.145 355.554,200.811 355.259 C 201.961 354.750,204.789 352.104,204.797 351.531 C 204.804 350.966,199.007 345.600,198.390 345.600 C 198.154 345.600,197.539 346.056,197.023 346.613 C 195.015 348.780,188.400 350.789,188.400 349.232 C 188.400 349.029,187.880 348.749,187.245 348.610 C 183.342 347.753,181.079 341.109,183.154 336.600 C 185.521 331.452,192.316 330.338,196.754 334.369 L 198.107 335.599 199.554 334.716 C 201.131 333.754,204.800 330.286,204.800 329.758 C 204.800 328.944,200.605 325.689,198.688 325.016 C 197.540 324.612,196.363 324.096,196.073 323.870 C 195.523 323.439,187.955 323.145,185.700 323.466 M22.667 323.867 C 22.520 324.013,22.400 331.573,22.400 340.667 L 22.400 357.200 27.600 357.200 L 32.800 357.200 32.800 350.800 L 32.800 344.400 38.600 344.400 L 44.400 344.400 44.400 350.800 L 44.400 357.200 49.600 357.200 L 54.800 357.200 54.800 341.033 C 54.800 332.141,54.691 324.581,54.557 324.233 C 54.354 323.703,53.509 323.600,49.357 323.600 L 44.400 323.600 44.400 330.000 L 44.400 336.400 38.600 336.400 L 32.800 336.400 32.800 330.000 L 32.800 323.600 27.867 323.600 C 25.153 323.600,22.813 323.720,22.667 323.867 M61.600 340.400 L 61.600 357.200 75.000 357.200 L 88.400 357.200 88.400 353.400 L 88.400 349.600 80.000 349.600 L 71.600 349.600 71.600 347.000 L 71.600 344.400 78.600 344.400 L 85.600 344.400 85.600 340.400 L 85.600 336.400 78.600 336.400 L 71.600 336.400 71.600 334.200 L 71.600 332.000 79.600 332.000 L 87.600 332.000 87.600 327.800 L 87.600 323.600 74.600 323.600 L 61.600 323.600 61.600 340.400 M94.000 340.400 L 94.000 357.200 106.814 357.200 L 119.628 357.200 119.514 353.100 L 119.400 349.000 111.700 348.891 L 104.000 348.783 104.000 336.191 L 104.000 323.600 99.000 323.600 L 94.000 323.600 94.000 340.400 M123.600 340.400 L 123.600 357.200 128.600 357.200 L 133.600 357.200 133.600 353.000 L 133.600 348.800 137.500 348.793 C 144.636 348.780,149.737 346.939,151.450 343.759 C 151.853 343.012,152.300 342.400,152.443 342.400 C 154.254 342.400,153.823 331.864,151.928 329.831 C 151.528 329.401,151.200 328.818,151.200 328.535 C 151.200 328.252,150.676 327.750,150.036 327.419 C 149.396 327.088,148.811 326.678,148.736 326.508 C 148.457 325.876,145.510 324.796,143.380 324.546 C 142.169 324.404,141.082 324.133,140.965 323.944 C 140.848 323.755,136.893 323.600,132.176 323.600 L 123.600 323.600 123.600 340.400 M209.043 324.233 C 208.909 324.581,208.800 332.141,208.800 341.033 L 208.800 357.200 214.000 357.200 L 219.200 357.200 219.200 353.000 L 219.200 348.800 221.332 348.800 C 223.198 348.800,223.532 348.925,224.000 349.800 C 224.294 350.350,224.672 350.800,224.840 350.800 C 225.007 350.800,225.548 351.610,226.043 352.600 C 226.537 353.590,227.062 354.400,227.208 354.400 C 227.354 354.400,227.813 355.030,228.228 355.800 L 228.982 357.200 234.518 357.200 L 240.054 357.200 239.777 356.300 C 239.625 355.805,239.163 355.078,238.750 354.684 C 238.338 354.291,238.000 353.821,238.000 353.641 C 238.000 353.460,237.372 352.522,236.604 351.556 C 235.836 350.590,235.206 349.603,235.204 349.362 C 235.202 349.121,234.840 348.598,234.400 348.200 C 233.491 347.378,233.342 346.400,234.124 346.400 C 234.827 346.400,237.854 343.094,238.218 341.928 C 238.377 341.418,238.709 340.871,238.954 340.714 C 239.535 340.342,239.544 332.468,238.963 332.080 C 238.733 331.926,238.148 330.990,237.663 330.000 C 236.198 327.009,231.779 324.417,228.124 324.404 C 227.422 324.402,226.736 324.220,226.600 324.000 C 226.141 323.257,209.332 323.480,209.043 324.233 M244.800 340.400 L 244.800 357.200 258.400 357.200 L 272.000 357.200 272.000 353.400 L 272.000 349.600 263.600 349.600 L 255.200 349.600 255.200 347.000 L 255.200 344.400 262.200 344.400 L 269.200 344.400 269.200 340.400 L 269.200 336.400 262.200 336.400 L 255.200 336.400 255.200 334.200 L 255.200 332.000 263.200 332.000 L 271.200 332.000 271.200 327.800 L 271.200 323.600 258.000 323.600 L 244.800 323.600 244.800 340.400 M287.200 325.400 C 286.923 326.390,286.553 327.200,286.379 327.200 C 286.205 327.200,285.852 327.875,285.596 328.700 C 285.339 329.525,284.707 331.100,284.191 332.200 C 282.042 336.783,280.000 341.639,280.000 342.167 C 280.000 342.479,279.822 342.793,279.604 342.867 C 279.387 342.940,278.829 344.080,278.366 345.400 C 277.902 346.720,277.387 347.890,277.221 348.000 C 277.055 348.110,276.545 349.190,276.088 350.400 C 275.630 351.610,274.884 353.356,274.428 354.281 C 272.983 357.215,272.962 357.200,278.591 357.200 C 284.313 357.200,284.135 357.307,285.435 353.100 L 286.146 350.800 292.585 350.800 L 299.025 350.800 299.581 352.100 C 299.887 352.815,300.437 354.210,300.803 355.200 L 301.468 357.000 306.934 357.111 C 309.940 357.172,312.400 357.094,312.400 356.938 C 312.400 356.781,312.055 355.921,311.634 355.026 C 309.651 350.814,308.000 347.165,308.000 346.992 C 308.000 346.779,306.075 342.458,304.617 339.400 C 304.093 338.300,303.432 336.770,303.149 336.000 C 302.866 335.230,302.401 334.362,302.117 334.071 C 301.833 333.781,301.600 333.275,301.600 332.947 C 301.600 332.619,301.163 331.417,300.629 330.275 C 300.095 329.134,299.205 327.165,298.651 325.900 L 297.644 323.600 292.674 323.600 L 287.704 323.600 287.200 325.400 M312.000 327.800 L 312.000 332.000 317.000 332.000 L 322.000 332.000 322.000 344.600 L 322.000 357.200 327.200 357.200 L 332.400 357.200 332.400 344.600 L 332.400 332.000 337.200 332.000 L 342.000 332.000 342.000 327.800 L 342.000 323.600 327.000 323.600 L 312.000 323.600 312.000 327.800 M346.000 340.400 L 346.000 357.200 359.600 357.200 L 373.200 357.200 373.200 353.400 L 373.200 349.600 364.600 349.600 L 356.000 349.600 356.000 347.009 L 356.000 344.418 363.300 344.309 L 370.600 344.200 370.600 340.400 L 370.600 336.600 363.300 336.491 L 356.000 336.382 356.000 334.191 L 356.000 332.000 364.200 332.000 L 372.400 332.000 372.400 327.800 L 372.400 323.600 359.200 323.600 L 346.000 323.600 346.000 340.400 M140.432 332.402 C 141.288 332.640,142.080 333.203,142.400 333.800 C 142.694 334.350,143.085 334.800,143.268 334.800 C 143.841 334.800,143.629 337.628,143.009 338.248 C 142.684 338.573,142.146 339.227,141.814 339.701 C 141.285 340.457,140.743 340.583,137.405 340.729 L 133.600 340.895 133.600 336.448 L 133.600 332.000 136.300 332.002 C 137.785 332.003,139.645 332.184,140.432 332.402 M226.000 332.409 C 227.771 332.921,228.909 334.472,228.909 336.372 C 228.909 339.549,227.026 340.800,222.240 340.800 L 219.200 340.800 219.200 336.400 L 219.200 332.000 221.900 332.002 C 223.385 332.003,225.230 332.187,226.000 332.409 M294.605 339.700 C 295.024 340.965,295.508 342.000,295.683 342.000 C 295.857 342.000,296.000 342.270,296.000 342.600 C 296.000 343.084,295.373 343.200,292.753 343.200 C 289.570 343.200,289.512 343.182,289.786 342.300 C 289.939 341.805,290.161 340.995,290.279 340.500 C 290.397 340.005,290.642 339.600,290.823 339.600 C 291.004 339.600,291.467 338.541,291.851 337.246 L 292.550 334.892 293.197 336.146 C 293.554 336.836,294.187 338.435,294.605 339.700 " stroke="none" fill="#044bac" fill-rule="evenodd"></path><path id="path1" d="M267.002 26.230 C 265.464 26.536,264.144 26.969,264.069 27.193 C 263.994 27.417,263.702 27.600,263.420 27.600 C 262.549 27.600,258.643 29.337,257.825 30.088 C 257.398 30.480,256.853 30.800,256.613 30.800 C 256.373 30.800,255.917 31.160,255.600 31.600 C 255.283 32.040,254.820 32.400,254.572 32.400 C 253.963 32.400,248.890 37.764,248.323 39.008 C 248.075 39.554,247.743 40.000,247.585 40.000 C 247.427 40.000,246.916 40.890,246.448 41.977 C 245.980 43.065,245.450 44.045,245.271 44.156 C 245.091 44.267,244.601 45.762,244.182 47.479 C 243.763 49.196,243.236 50.728,243.010 50.885 C 242.424 51.293,242.471 63.210,243.063 64.439 C 243.318 64.968,243.749 66.300,244.023 67.400 C 245.228 72.251,252.548 83.200,254.587 83.200 C 254.700 83.200,255.618 83.830,256.627 84.600 C 257.636 85.370,258.705 86.000,259.002 86.000 C 259.300 86.000,259.800 86.257,260.115 86.572 C 260.735 87.192,265.294 88.800,266.433 88.800 C 266.818 88.800,267.208 89.025,267.300 89.300 C 267.513 89.938,282.270 90.027,282.715 89.393 C 282.872 89.169,284.415 88.577,286.144 88.078 C 287.873 87.578,289.551 86.906,289.873 86.585 C 290.194 86.263,290.700 86.000,290.998 86.000 C 291.295 86.000,292.364 85.370,293.373 84.600 C 294.382 83.830,295.305 83.200,295.426 83.200 C 295.884 83.200,300.342 78.388,301.235 76.929 C 301.749 76.088,302.387 75.177,302.653 74.904 C 302.918 74.631,303.344 73.776,303.599 73.004 C 303.854 72.232,304.228 71.600,304.431 71.600 C 304.634 71.600,304.800 71.251,304.800 70.824 C 304.800 70.397,304.956 69.951,305.146 69.833 C 305.336 69.716,305.713 68.490,305.984 67.110 C 306.254 65.729,306.603 64.420,306.758 64.200 C 307.589 63.027,307.614 51.200,306.786 51.200 C 306.630 51.200,306.384 50.435,306.240 49.500 C 305.903 47.319,304.821 44.000,304.447 44.000 C 304.288 44.000,303.834 43.100,303.439 42.000 C 303.043 40.900,302.553 40.000,302.350 40.000 C 302.147 40.000,301.824 39.590,301.634 39.090 C 301.200 37.947,296.075 32.400,295.453 32.400 C 295.200 32.400,294.768 32.040,294.493 31.600 C 294.218 31.160,293.759 30.800,293.472 30.800 C 293.185 30.800,292.602 30.480,292.175 30.088 C 291.357 29.337,287.451 27.600,286.580 27.600 C 286.298 27.600,286.007 27.425,285.933 27.211 C 285.454 25.815,272.483 25.143,267.002 26.230 M173.004 49.036 C 171.466 49.381,170.110 49.822,169.990 50.016 C 169.870 50.210,169.095 50.652,168.269 50.997 C 167.442 51.343,166.664 51.890,166.540 52.213 C 166.416 52.536,166.135 52.800,165.915 52.800 C 165.695 52.800,164.981 53.250,164.327 53.800 C 163.673 54.350,163.215 54.800,163.307 54.800 C 163.549 54.800,150.626 67.611,149.957 68.035 C 149.651 68.229,149.580 68.393,149.800 68.400 C 150.020 68.407,149.930 68.582,149.600 68.790 C 148.892 69.236,122.423 95.600,122.683 95.600 C 122.781 95.600,122.315 96.060,121.648 96.621 C 114.954 102.253,108.759 109.811,107.764 113.559 C 106.646 117.769,107.579 129.714,109.188 131.800 C 109.358 132.020,109.810 133.629,110.193 135.376 C 110.575 137.123,111.049 138.833,111.245 139.176 C 111.442 139.519,111.934 141.330,112.341 143.200 C 113.257 147.422,113.346 147.752,113.627 148.000 C 113.751 148.110,114.180 149.779,114.580 151.709 C 114.979 153.639,115.465 155.317,115.659 155.437 C 115.854 155.557,115.897 155.843,115.755 156.072 C 115.614 156.302,115.661 156.604,115.860 156.745 C 116.060 156.885,116.551 158.620,116.953 160.600 C 117.354 162.580,117.826 164.380,118.001 164.600 C 118.177 164.820,118.708 166.795,119.181 168.989 C 119.654 171.183,120.186 173.073,120.362 173.189 C 120.539 173.305,120.905 174.590,121.176 176.044 L 121.670 178.689 125.722 179.362 C 127.951 179.732,129.870 180.180,129.987 180.358 C 130.104 180.536,131.415 181.083,132.900 181.573 C 134.385 182.064,135.601 182.586,135.601 182.733 C 135.602 182.880,136.412 183.333,137.401 183.740 C 138.391 184.146,139.200 184.641,139.200 184.840 C 139.200 185.038,139.339 185.155,139.508 185.100 C 139.831 184.995,140.685 185.625,142.138 187.039 C 142.612 187.501,143.399 188.089,143.888 188.347 C 144.619 188.732,146.623 190.935,150.112 195.187 C 150.814 196.042,151.899 197.944,152.859 200.000 C 153.321 200.990,153.922 202.070,154.194 202.400 C 154.700 203.012,156.400 209.266,156.400 210.513 C 156.400 210.891,156.580 211.200,156.800 211.200 C 157.020 211.200,157.200 211.786,157.200 212.502 C 157.200 213.814,158.099 214.543,160.258 214.980 C 163.002 215.535,167.065 216.535,167.400 216.736 C 167.620 216.869,167.980 217.020,168.200 217.071 C 174.513 218.552,176.234 219.001,176.400 219.209 C 176.510 219.347,178.114 219.783,179.965 220.177 C 181.816 220.572,183.886 221.125,184.565 221.406 C 185.244 221.686,187.330 222.224,189.200 222.600 C 191.070 222.976,192.825 223.467,193.100 223.691 C 193.375 223.915,193.600 223.964,193.600 223.800 C 193.600 223.636,193.825 223.680,194.100 223.898 C 194.375 224.116,195.860 224.520,197.400 224.795 C 198.940 225.071,200.740 225.535,201.400 225.826 C 202.789 226.440,209.286 228.000,210.455 228.000 C 210.891 228.000,211.159 228.143,211.051 228.317 C 210.599 229.048,220.683 229.212,221.164 228.481 C 221.294 228.284,222.452 227.795,223.738 227.395 C 225.024 226.994,226.316 226.427,226.610 226.133 C 226.903 225.840,227.291 225.596,227.471 225.591 C 228.136 225.572,282.400 171.965,282.400 171.328 C 282.400 171.217,283.034 170.387,283.808 169.482 C 284.583 168.577,285.422 167.153,285.672 166.318 C 285.922 165.483,286.308 164.800,286.530 164.800 C 286.752 164.800,286.815 164.682,286.670 164.537 C 286.525 164.392,286.613 164.025,286.865 163.722 C 287.930 162.438,287.582 150.413,286.456 149.606 C 286.298 149.493,285.739 147.420,285.215 145.000 C 284.690 142.580,284.147 140.510,284.008 140.400 C 283.717 140.169,282.400 134.800,282.400 133.843 C 282.400 133.489,282.255 133.200,282.078 133.200 C 281.902 133.200,281.322 131.144,280.789 128.631 C 280.257 126.119,279.715 124.129,279.585 124.209 C 279.455 124.289,279.013 122.646,278.602 120.556 C 278.191 118.467,277.715 116.671,277.545 116.566 C 277.374 116.461,277.336 116.110,277.460 115.787 C 277.584 115.464,277.486 115.200,277.243 115.200 C 276.999 115.200,276.800 114.911,276.800 114.557 C 276.800 113.646,275.491 108.240,275.212 108.000 C 274.985 107.805,273.159 100.291,273.098 99.300 C 273.081 99.025,272.929 98.800,272.761 98.800 C 272.593 98.800,272.398 98.395,272.328 97.900 C 272.212 97.085,271.901 96.970,269.014 96.685 C 267.262 96.511,265.732 96.224,265.614 96.046 C 265.496 95.869,264.860 95.599,264.200 95.448 C 261.734 94.882,258.800 93.881,258.800 93.605 C 258.800 93.449,257.720 92.891,256.400 92.367 C 255.080 91.843,254.000 91.280,254.000 91.117 C 254.000 90.954,253.505 90.564,252.900 90.251 C 252.295 89.937,251.332 89.257,250.761 88.740 C 250.189 88.223,248.694 86.900,247.438 85.800 C 246.182 84.700,244.766 83.177,244.292 82.415 C 243.817 81.653,243.181 80.753,242.878 80.415 C 241.950 79.379,239.600 75.456,239.600 74.942 C 239.600 74.675,239.366 74.219,239.081 73.929 C 238.550 73.388,236.850 68.115,236.633 66.333 C 236.615 66.187,236.465 65.932,236.300 65.767 C 236.135 65.602,236.000 64.963,236.000 64.347 C 236.000 63.029,235.324 62.588,232.704 62.195 C 231.661 62.038,230.886 61.784,230.981 61.630 C 231.076 61.477,230.039 61.131,228.677 60.863 C 224.828 60.104,222.219 59.449,222.000 59.186 C 221.890 59.054,220.360 58.629,218.600 58.241 C 216.840 57.853,215.040 57.380,214.600 57.189 C 214.160 56.999,212.180 56.462,210.200 55.997 C 208.220 55.532,206.330 55.045,206.000 54.915 C 204.583 54.358,198.352 52.810,197.500 52.805 C 197.115 52.802,196.800 52.640,196.800 52.445 C 196.800 52.250,196.305 52.003,195.700 51.896 C 192.410 51.311,188.593 50.326,188.130 49.942 C 187.838 49.700,187.600 49.605,187.600 49.732 C 187.600 49.858,186.745 49.696,185.700 49.371 C 182.781 48.462,176.323 48.292,173.004 49.036 M113.200 185.859 C 110.444 186.272,107.600 186.938,107.600 187.172 C 107.600 187.316,106.748 187.662,105.706 187.941 C 104.664 188.219,102.951 188.977,101.900 189.624 C 100.848 190.271,99.831 190.800,99.640 190.800 C 99.449 190.800,98.993 191.256,98.628 191.813 C 98.263 192.370,97.825 192.739,97.653 192.633 C 97.309 192.420,92.000 197.778,92.000 198.339 C 92.000 198.532,91.575 199.120,91.056 199.645 C 90.537 200.170,89.871 201.275,89.576 202.100 C 89.281 202.925,88.901 203.600,88.731 203.600 C 88.562 203.600,88.033 204.905,87.556 206.500 C 87.079 208.095,86.489 209.653,86.245 209.961 C 85.647 210.716,85.629 225.114,86.225 225.514 C 86.458 225.671,86.868 226.790,87.134 228.000 C 87.401 229.210,87.868 230.650,88.172 231.200 C 88.476 231.750,89.126 232.982,89.616 233.937 C 90.107 234.893,90.933 236.134,91.454 236.696 C 91.974 237.257,92.401 237.916,92.402 238.158 C 92.404 238.534,94.662 240.763,98.314 243.992 C 99.692 245.210,105.010 247.928,106.600 248.226 C 107.370 248.371,108.000 248.624,108.000 248.789 C 108.000 249.966,118.927 250.685,123.600 249.817 C 125.470 249.469,127.225 249.158,127.500 249.126 C 127.775 249.093,128.000 248.951,128.000 248.809 C 128.000 248.667,129.080 248.228,130.400 247.832 C 131.720 247.437,132.800 246.942,132.800 246.733 C 132.800 246.524,132.980 246.464,133.200 246.600 C 133.420 246.736,133.600 246.676,133.600 246.467 C 133.600 246.258,134.005 245.983,134.500 245.856 C 134.995 245.729,136.120 244.993,137.000 244.220 C 137.880 243.447,138.720 242.812,138.867 242.808 C 139.124 242.800,141.328 240.622,143.000 238.723 C 143.790 237.826,144.488 236.770,145.064 235.600 C 145.227 235.270,145.675 234.661,146.060 234.246 C 146.445 233.831,146.873 232.976,147.012 232.346 C 147.150 231.716,147.389 231.200,147.543 231.200 C 147.915 231.200,149.122 227.084,149.448 224.700 C 149.592 223.655,149.846 222.800,150.014 222.800 C 150.181 222.800,150.344 220.550,150.375 217.800 C 150.411 214.573,150.284 212.800,150.016 212.800 C 149.787 212.800,149.600 212.379,149.600 211.864 C 149.600 210.532,148.061 204.686,147.641 204.421 C 147.448 204.300,147.013 203.536,146.676 202.724 C 145.366 199.580,139.569 192.825,137.660 192.219 C 137.180 192.067,136.892 191.775,137.018 191.571 C 137.144 191.367,137.042 191.200,136.791 191.200 C 136.541 191.200,135.405 190.600,134.268 189.867 C 133.131 189.134,131.390 188.286,130.400 187.984 C 129.410 187.681,128.508 187.305,128.395 187.147 C 127.716 186.197,117.004 185.289,113.200 185.859 M162.400 384.339 L 162.400 392.000 163.800 392.000 L 165.200 392.000 165.200 389.800 L 165.200 387.600 167.224 387.600 C 168.337 387.600,169.150 387.757,169.031 387.950 C 168.912 388.142,169.258 388.778,169.800 389.363 C 170.342 389.947,170.975 390.780,171.207 391.213 C 171.589 391.927,174.800 392.450,174.800 391.799 C 174.800 391.253,173.180 388.673,172.547 388.210 C 171.870 387.716,171.902 387.612,173.062 386.529 C 175.659 384.103,175.136 379.010,172.149 377.650 C 171.578 377.389,169.150 377.064,166.755 376.927 L 162.400 376.678 162.400 384.339 M180.400 384.400 L 180.400 392.000 181.787 392.000 L 183.175 392.000 183.287 387.300 L 183.400 382.600 184.200 383.549 C 184.640 384.071,185.349 384.836,185.775 385.249 C 186.202 385.662,186.427 386.000,186.275 386.000 C 186.124 386.000,186.315 386.358,186.700 386.795 C 187.085 387.232,187.850 388.155,188.400 388.845 C 190.394 391.346,191.278 392.000,192.667 392.000 L 194.018 392.000 193.909 384.500 L 193.800 377.000 192.512 376.876 L 191.224 376.751 191.112 381.814 L 191.000 386.877 188.815 384.139 C 183.717 377.749,182.779 376.800,181.560 376.800 L 180.400 376.800 180.400 384.400 M200.400 384.376 L 200.400 392.000 202.000 392.000 L 203.600 392.000 203.600 388.800 L 203.600 385.600 207.200 385.600 L 210.800 385.600 210.800 388.824 L 210.800 392.048 212.300 391.924 L 213.800 391.800 213.800 384.400 L 213.800 377.000 212.400 377.000 L 211.000 377.000 210.882 379.900 L 210.765 382.800 207.200 382.800 L 203.635 382.800 203.518 379.900 L 203.400 377.000 201.900 376.876 L 200.400 376.752 200.400 384.376 M225.400 376.971 C 225.180 377.059,224.508 377.238,223.908 377.371 C 220.391 378.146,218.450 382.999,219.714 387.855 C 220.037 389.096,222.634 391.551,223.908 391.818 C 224.508 391.945,225.313 392.217,225.695 392.424 C 226.500 392.860,228.541 392.926,228.938 392.529 C 229.087 392.379,230.062 391.963,231.105 391.605 C 232.646 391.074,233.023 390.756,233.124 389.903 C 233.312 388.314,232.161 387.889,230.191 388.821 C 227.856 389.925,223.600 389.426,223.600 388.049 C 223.600 387.833,223.300 387.357,222.933 386.990 C 222.104 386.161,222.042 383.180,222.833 382.226 C 224.355 380.391,224.867 380.024,226.269 379.761 C 227.307 379.566,228.386 379.691,229.707 380.160 C 233.023 381.338,234.909 379.315,231.900 377.807 C 230.674 377.193,226.269 376.626,225.400 376.971 M171.004 380.403 C 173.151 382.185,171.359 384.815,167.804 385.101 L 165.200 385.310 165.200 382.400 L 165.200 379.490 167.804 379.699 C 169.236 379.814,170.676 380.131,171.004 380.403 " stroke="none" fill="#fc1414" fill-rule="evenodd"></path><path id="path2" d="" stroke="none" fill="#3c30b0" fill-rule="evenodd"></path><path id="path3" d="" stroke="none" fill="#bc3064" fill-rule="evenodd"></path><path id="path4" d="" stroke="none" fill="#1003014" fill-rule="evenodd"></path></g></svg>